# xmcd
#
# Track frame offsets:
#	150
#	17282
#	29171
#	40715
#	56536
#	84433
#	104946
#	122111
#	140808
#	163126
#	178992
#	198165
#	214713
#	232634
#	248447
#	272201
#	287354
#	301551
#
# Disc length: 4383 seconds
#
# Revision: 0
# Processed by: cddbd v1.5.2PL0 Copyright (c) Steve Scherf et al.
# Submitted via: audiograbber 1.83.01
#
DISCID=f4111d12
DTITLE=Steve Earle - Magnestised Motherfuckers - CD3
DYEAR=2000
DGENRE=Country
TTITLE0=Copperhead Road (Steve Earle and Peter Rowan, Roy Huskey Jr., Norman Blak
TTITLE0=e)
TTITLE1=Sorry Dwayne (Steve Earle and The Dukes)
TTITLE2=You Know The Rest (Steve Earle, Nashville, TN, 1-Oct-1997) 
TTITLE3=Valentine's Day (Steve Earle and The Fairfield Four)
TTITLE4=Christmas In Washington
TTITLE5=This Land Is Your Land (Steve Earle et al)
TTITLE6=Copperhead Road (Steve Earle and The Del Mccoury Band)
TTITLE7=I Ain't Ever Satisfied
TTITLE8=Sin City (Steve Earle and The Bluegrass Dukes)
TTITLE9=My Uncle (Steve Earle and The Bluegrass Dukes)
TTITLE10=Copperhead Road (Steve Earle and The Dukes)
TTITLE11=The Galway Girl (Steve Earle and The Dukes)
TTITLE12=Steve's Last Ramble (Steve Earle and The Dukes)
TTITLE13=I Feel Alright (Steve Earle and The Dukes)
TTITLE14=Copperhead Road (Steve Earle and The Dukes)
TTITLE15=Until The Day I Die (Steve Earle and The Del Mccoury Band)
TTITLE16=Sara's Angel (Steve Earle and The Bluegrass Dukes)
TTITLE17=Goodbye (Steve Earle and Emmylou Harris, Sharon Shannon)
EXTD=
EXTT0=
EXTT1=
EXTT2=
EXTT3=
EXTT4=
EXTT5=
EXTT6=
EXTT7=
EXTT8=
EXTT9=
EXTT10=
EXTT11=
EXTT12=
EXTT13=
EXTT14=
EXTT15=
EXTT16=
EXTT17=
PLAYORDER=
